<svg id="svg" version="1.1" xmlns="http://www.w3.org/2000/svg" xmlns:xlink="http://www.w3.org/1999/xlink" width="400" height="400" viewBox="0, 0, 400,400"><g id="svgg"><path id="path0" d="M148.676 150.052 C 143.128 164.689,138.342 177.258,138.039 177.981 L 137.490 179.297 141.128 179.297 L 144.766 179.297 149.601 166.699 C 152.260 159.771,156.061 149.813,158.048 144.571 L 161.660 135.040 162.208 136.368 C 162.510 137.098,165.882 145.633,169.702 155.336 L 176.647 172.976 175.281 176.136 L 173.914 179.297 177.523 179.297 L 181.133 179.297 184.496 171.387 L 187.860 163.477 193.930 163.369 L 200.000 163.261 200.000 171.279 L 200.000 179.297 210.938 179.297 L 221.875 179.297 221.875 176.367 L 221.875 173.438 213.867 173.438 L 205.859 173.438 205.859 163.672 L 205.859 153.906 212.305 153.906 L 218.750 153.906 218.750 150.977 L 218.750 148.047 212.305 148.047 L 205.859 148.047 205.859 138.672 L 205.859 129.297 213.086 129.297 L 220.313 129.297 220.313 126.367 L 220.313 123.438 208.887 123.445 L 197.461 123.452 189.063 143.725 C 184.443 154.875,180.559 163.880,180.431 163.737 C 180.303 163.594,176.718 154.468,172.464 143.457 L 164.730 123.438 161.747 123.438 L 158.764 123.438 148.676 150.052 M228.125 123.589 C 228.125 123.672,231.113 129.844,234.766 137.305 C 238.418 144.765,241.406 151.025,241.406 151.216 C 241.406 151.406,238.841 156.879,235.705 163.379 C 232.570 169.878,229.584 176.118,229.070 177.246 L 228.135 179.297 243.112 179.297 L 258.089 179.297 258.167 176.367 L 258.244 173.438 248.067 173.438 C 242.470 173.438,237.891 173.355,237.891 173.253 C 237.891 173.152,240.280 168.098,243.201 162.023 L 248.511 150.977 243.201 140.330 C 240.280 134.475,237.891 129.597,237.891 129.490 C 237.891 129.384,242.109 129.297,247.266 129.297 L 256.641 129.297 256.641 126.367 L 256.641 123.438 242.383 123.438 C 234.541 123.438,228.125 123.506,228.125 123.589 M200.000 145.898 L 200.000 157.422 195.313 157.422 C 192.734 157.422,190.625 157.327,190.625 157.210 C 190.625 157.094,192.353 152.831,194.465 147.737 C 196.577 142.644,198.633 137.554,199.034 136.426 C 199.436 135.298,199.817 134.375,199.882 134.375 C 199.947 134.375,200.000 139.561,200.000 145.898 M64.528 213.682 C 44.231 218.999,44.036 248.578,64.258 254.526 C 73.503 257.246,84.515 252.774,88.622 244.632 C 97.231 227.565,82.713 208.918,64.528 213.682 M113.796 213.478 C 92.279 218.155,92.335 250.338,113.867 254.879 C 126.572 257.558,137.891 249.009,137.891 236.734 L 137.891 233.789 127.832 233.873 L 117.773 233.957 117.773 236.217 L 117.773 238.477 125.293 238.477 C 134.016 238.477,133.722 238.289,131.616 242.504 C 125.460 254.824,107.283 252.497,103.670 238.926 C 99.286 222.460,117.654 210.726,129.255 222.581 L 131.485 224.861 134.118 224.589 C 137.403 224.249,137.348 224.323,135.909 222.150 C 131.242 215.104,122.353 211.618,113.796 213.478 M332.227 213.322 C 320.987 215.599,313.800 228.257,316.974 240.183 C 322.370 260.456,351.320 260.213,356.481 239.851 C 360.440 224.231,347.616 210.203,332.227 213.322 M368.828 213.540 C 364.910 214.738,361.530 218.691,361.065 222.618 C 360.356 228.598,364.743 233.411,373.542 236.307 C 378.688 238.002,381.315 240.566,381.315 243.896 C 381.315 252.288,367.892 253.064,365.252 244.824 L 364.783 243.359 362.274 243.359 C 359.236 243.359,359.043 243.981,360.877 247.852 C 366.505 259.729,386.305 256.521,386.324 243.729 C 386.333 237.785,383.304 234.753,373.664 231.060 C 369.168 229.337,366.641 227.234,366.192 224.839 C 364.682 216.792,377.485 214.214,380.070 222.045 L 380.529 223.438 383.038 223.438 C 385.866 223.438,385.888 223.405,384.925 220.580 C 382.941 214.758,375.496 211.502,368.828 213.540 M24.609 234.082 L 24.609 254.492 35.980 254.407 L 47.351 254.321 47.406 251.965 L 47.461 249.609 38.574 249.609 L 29.688 249.609 29.688 231.641 L 29.688 213.672 27.148 213.672 L 24.609 213.672 24.609 234.082 M156.667 214.551 C 156.477 215.034,153.602 222.285,150.277 230.664 C 143.218 248.455,141.016 254.080,141.015 254.319 C 141.015 254.414,142.270 254.404,143.804 254.297 L 146.594 254.102 148.537 249.121 L 150.481 244.141 159.581 244.141 L 168.682 244.141 169.921 247.363 C 170.603 249.136,171.493 251.465,171.900 252.539 L 172.639 254.492 175.402 254.492 C 177.668 254.492,178.137 254.387,178.007 253.906 C 177.920 253.584,174.295 244.399,169.950 233.496 L 162.052 213.672 159.532 213.672 C 157.281 213.672,156.975 213.766,156.667 214.551 M183.594 234.082 L 183.594 254.492 195.508 254.492 L 207.422 254.492 207.422 252.051 L 207.422 249.609 198.047 249.609 L 188.672 249.609 188.672 242.969 L 188.672 236.328 196.680 236.328 L 204.688 236.328 204.688 233.984 L 204.688 231.641 196.680 231.641 L 188.672 231.641 188.672 225.000 L 188.672 218.359 198.242 218.359 L 207.813 218.359 207.813 216.016 L 207.813 213.672 195.703 213.672 L 183.594 213.672 183.594 234.082 M214.063 214.649 C 214.063 215.264,216.316 218.955,220.153 224.625 C 223.503 229.575,226.157 233.837,226.052 234.097 C 225.947 234.358,223.110 238.525,219.749 243.358 C 214.897 250.334,213.661 252.371,213.752 253.234 L 213.867 254.322 227.637 254.407 L 241.406 254.492 241.406 252.057 L 241.406 249.623 231.497 249.518 L 221.588 249.414 226.986 241.638 C 231.036 235.803,232.299 233.707,232.043 233.240 C 231.856 232.897,229.518 229.453,226.847 225.586 L 221.993 218.555 231.113 218.450 L 240.234 218.345 240.234 216.009 L 240.234 213.672 227.148 213.672 L 214.063 213.672 214.063 214.649 M245.313 216.016 L 245.313 218.359 250.973 218.359 L 256.633 218.359 256.734 236.370 L 256.836 254.381 259.278 254.437 L 261.719 254.492 261.719 236.426 L 261.719 218.359 267.578 218.359 L 273.438 218.359 273.438 216.016 L 273.438 213.672 259.375 213.672 L 245.313 213.672 245.313 216.016 M279.687 234.082 L 279.687 254.492 282.225 254.492 L 284.764 254.492 284.765 245.410 L 284.766 236.328 295.313 236.328 L 305.859 236.328 305.859 245.410 L 305.859 254.492 308.398 254.492 L 310.938 254.492 310.938 234.082 L 310.938 213.672 308.398 213.672 L 305.859 213.672 305.859 222.639 L 305.859 231.606 295.410 231.526 L 284.961 231.445 284.856 222.559 L 284.751 213.672 282.219 213.672 L 279.688 213.672 279.687 234.082 M73.125 218.011 C 81.453 219.753,87.069 228.244,85.631 236.919 C 83.063 252.420,62.847 255.639,56.218 241.602 C 50.354 229.182,60.285 215.325,73.125 218.011 M342.852 219.127 C 354.835 224.702,354.800 243.939,342.797 249.249 C 331.433 254.275,319.789 244.377,321.806 231.404 C 323.465 220.737,333.602 214.823,342.852 219.127 M163.090 229.898 C 164.938 234.616,166.484 238.619,166.525 238.792 C 166.588 239.052,152.706 239.207,152.510 238.948 C 152.476 238.904,153.888 235.176,155.647 230.664 C 157.407 226.152,158.970 222.128,159.120 221.721 C 159.504 220.681,159.382 220.429,163.090 229.898 " stroke="none" fill="#000000" fill-rule="evenodd"></path></g></svg>